<svg width="14" height="17" viewBox="0 0 14 17" fill="none" xmlns="http://www.w3.org/2000/svg">
<path d="M10.333 4.00033L9.96634 4.45866C9.61634 4.89199 9.14967 5.08366 8.68301 5.08366C7.83301 5.08366 6.99967 4.43366 6.99967 3.41699V0.666992C6.99967 0.666992 0.333008 4.00033 0.333008 9.83366C0.333008 13.517 3.31634 16.5003 6.99967 16.5003C10.683 16.5003 13.6663 13.517 13.6663 9.83366C13.6663 7.36699 12.3247 5.15033 10.333 4.00033ZM6.99967 14.8337C6.08301 14.8337 5.33301 14.1087 5.33301 13.217C5.33301 12.792 5.49967 12.392 5.81634 12.0837L6.99967 10.917L8.19134 12.0837C8.49967 12.392 8.66634 12.792 8.66634 13.217C8.66634 14.1087 7.91634 14.8337 6.99967 14.8337ZM10.2997 13.5837C10.333 13.2837 10.483 12.0087 9.35801 10.9003L6.99967 8.58366L4.64134 10.9003C3.50801 12.017 3.66634 13.3003 3.69967 13.5837C3.16558 13.1157 2.73761 12.5391 2.44443 11.8924C2.15124 11.2456 1.99961 10.5437 1.99967 9.83366C1.99967 7.20033 3.77467 5.12533 5.35801 3.79199C5.45461 4.60638 5.8463 5.35714 6.45899 5.90227C7.07169 6.4474 7.86291 6.74911 8.68301 6.75033C9.33301 6.75033 9.96634 6.55866 10.4997 6.20033C11.4608 7.16523 12.0002 8.47177 11.9997 9.83366C11.9997 11.3253 11.3413 12.667 10.2997 13.5837Z" fill="#515A68"/>
</svg>
