<svg width="20" height="22" viewBox="0 0 20 22" fill="none" xmlns="http://www.w3.org/2000/svg">
<path d="M14.36 14L16 20H4L5.64 14H14.36ZM16 12H4L2 20C2.04215 20.5164 2.2664 21.0009 2.63273 21.3673C2.99906 21.7336 3.48364 21.9579 4 22H16C16.5183 21.9633 17.0059 21.7407 17.3733 21.3733C17.7407 21.0059 17.9633 20.5183 18 20L16 12ZM20 9H0V11H20V9ZM8 7C8.26522 7 8.51957 7.10536 8.70711 7.29289C8.89464 7.48043 9 7.73478 9 8H11C11 7.73478 11.1054 7.48043 11.2929 7.29289C11.4804 7.10536 11.7348 7 12 7C12.2652 7 12.5196 7.10536 12.7071 7.29289C12.8946 7.48043 13 7.73478 13 8H15C14.8487 7.34278 14.5688 6.72202 14.1765 6.17349C13.7841 5.62496 13.2871 5.15952 12.714 4.804C12.913 4.16695 13.0095 3.50234 13 2.835C13 1.27 12.552 0 12 0C11.448 0 11 1.27 11 2.835C10.9984 3.27128 11.0369 3.70678 11.115 4.136C10.3814 3.95382 9.6144 3.95416 8.881 4.137C8.96066 3.70759 9.0005 3.27174 9 2.835C9 1.27 8.552 0 8 0C7.448 0 7 1.27 7 2.835C6.98942 3.50284 7.08494 4.16812 7.283 4.806C6.71068 5.16158 6.21433 5.62684 5.82252 6.175C5.43071 6.72316 5.15117 7.34339 5 8H7C7 7.73478 7.10536 7.48043 7.29289 7.29289C7.48043 7.10536 7.73478 7 8 7Z" fill="white"/>
</svg>
