<svg width="20" height="19" viewBox="0 0 20 19" fill="none" xmlns="http://www.w3.org/2000/svg">
<path d="M3.5118 17.4742L3.51261 17.4751C3.83585 17.8412 4.19436 18 4.65 18C5.49415 18 6.32981 17.9297 7.15759 17.7891C8.09648 17.6297 9.04415 17.55 10 17.55C10.9558 17.55 11.9035 17.6297 12.8424 17.7891C13.6702 17.9297 14.5058 18 15.35 18C15.8057 18 16.1647 17.8412 16.4888 17.4747C16.8314 17.087 17 16.6451 17 16.1C17 15.4862 16.7998 14.967 16.3737 14.4984L3.5118 17.4742ZM3.5118 17.4742C3.16863 17.0865 3 16.6447 3 16.1C3 15.4864 3.20036 14.9671 3.62732 14.4984L3.6277 14.4979C4.21683 13.8504 4.80193 13.2111 5.38302 12.5802M3.5118 17.4742L5.38302 12.5802M5.38302 12.5802C5.91727 12.0087 6.37897 11.3851 6.7669 10.7105C7.08032 10.1661 7.45445 9.65322 7.89099 9.17152L7.9024 9.15892L7.91339 9.14594C8.20801 8.79775 8.54621 8.5131 8.93072 8.2877C9.25885 8.09535 9.60898 8 10 8C10.4024 8 10.7606 8.09276 11.0919 8.27558C11.4656 8.48174 11.7964 8.7529 12.0866 9.09594L12.092 9.10227L12.0974 9.1085C12.5215 9.59312 12.8963 10.1157 13.2222 10.6771L13.2226 10.6778C13.6167 11.3554 14.0792 11.9869 14.609 12.5715L14.609 12.5715L14.6145 12.5775C15.1964 13.2093 15.7827 13.8494 16.3733 14.4979L5.38302 12.5802ZM2.5 8C2.05806 8 1.7229 7.85869 1.43211 7.56789C1.14131 7.2771 1 6.94194 1 6.5C1 6.05806 1.14131 5.7229 1.43211 5.43211C1.7229 5.14131 2.05806 5 2.5 5C2.94194 5 3.2771 5.14131 3.56789 5.43211C3.85869 5.7229 4 6.05806 4 6.5C4 6.94194 3.85869 7.2771 3.56789 7.56789C3.2771 7.85869 2.94194 8 2.5 8ZM7 4C6.55806 4 6.2229 3.85869 5.93211 3.56789C5.64131 3.2771 5.5 2.94194 5.5 2.5C5.5 2.05806 5.64131 1.7229 5.93211 1.43211C6.2229 1.14131 6.55806 1 7 1C7.44194 1 7.7771 1.14131 8.06789 1.43211C8.35869 1.7229 8.5 2.05806 8.5 2.5C8.5 2.94194 8.35869 3.2771 8.06789 3.56789C7.7771 3.85869 7.44194 4 7 4ZM13 4C12.5581 4 12.2229 3.85869 11.9321 3.56789C11.6413 3.2771 11.5 2.94194 11.5 2.5C11.5 2.05806 11.6413 1.7229 11.9321 1.43211C12.2229 1.14131 12.5581 1 13 1C13.4419 1 13.7771 1.14131 14.0679 1.43211C14.3587 1.7229 14.5 2.05806 14.5 2.5C14.5 2.94194 14.3587 3.2771 14.0679 3.56789C13.7771 3.85869 13.4419 4 13 4ZM17.5 8C17.0581 8 16.7229 7.85869 16.4321 7.56789C16.1413 7.2771 16 6.94194 16 6.5C16 6.05806 16.1413 5.7229 16.4321 5.43211C16.7229 5.14131 17.0581 5 17.5 5C17.9419 5 18.2771 5.14131 18.5679 5.43211C18.8587 5.7229 19 6.05806 19 6.5C19 6.94194 18.8587 7.2771 18.5679 7.56789C18.2771 7.85869 17.9419 8 17.5 8Z" stroke="white" stroke-width="2"/>
</svg>
