<svg width="20" height="19" viewBox="0 0 20 19" fill="none" xmlns="http://www.w3.org/2000/svg">
<path d="M18 9.943C18 5.562 14.424 2 10 2C5.576 2 2 5.562 2 9.943C2 11.133 2.147 11.898 2.328 12.459C2.45 12.831 2.741 12.464 2.885 12.329C3.35747 11.8859 3.98345 11.6435 4.6311 11.6529C5.27874 11.6622 5.89749 11.9225 6.357 12.379C7.778 13.791 9.089 15.749 7.278 17.549C6.306 18.515 4.842 18.917 3.728 17.877C2.29 16.533 1.041 14.969 0.426 13.077C0.17 12.283 0 11.304 0 9.942C0 4.445 4.483 0 10 0C15.517 0 20 4.445 20 9.943C20 11.305 19.831 12.284 19.574 13.076C18.959 14.969 17.71 16.533 16.272 17.876C15.158 18.917 13.694 18.516 12.722 17.549C10.912 15.749 12.222 13.791 13.642 12.379C14.1016 11.9222 14.7205 11.6617 15.3684 11.6524C16.0163 11.6431 16.6425 11.8856 17.115 12.329C17.392 12.589 17.529 12.899 17.672 12.459C17.853 11.899 18 11.132 18 9.943Z" fill="white"/>
</svg>
